<svg width="405" height="282" viewBox="0 0 405 282" fill="none" xmlns="http://www.w3.org/2000/svg">
<g clip-path="url(#clip0_4_183)">
<path d="M84.6598 11.6494L86.4291 157.481L162.881 194.688L161.112 48.8559L84.6598 11.6494Z" fill="#F2F2F2"/>
<path d="M61.4275 0L4.30098 117.169L81.8137 154.892L80.0444 9.06015L61.4275 0Z" fill="#F2F2F2"/>
<path d="M405 164.603L250.708 89.5146L252.478 235.346L347.873 281.772L405 164.603Z" fill="#F2F2F2"/>
<path d="M168.023 48.856L169.792 194.688L246.244 231.894L244.475 86.0624L168.023 48.856Z" fill="#F2F2F2"/>
<path d="M194.596 165.263L192.436 213.598C192.436 213.598 198.052 259.343 196.756 260.638C195.46 261.932 192.004 264.522 194.596 267.543C197.188 270.563 206.691 272.721 207.123 270.995C207.555 269.269 208.419 220.071 208.419 220.071L211.442 161.811L194.596 165.263Z" fill="#2F2E41"/>
<path opacity="0.2" d="M194.596 165.263L192.436 213.598C192.436 213.598 198.052 259.343 196.756 260.638C195.46 261.932 192.004 264.522 194.596 267.543C197.188 270.563 206.691 272.721 207.123 270.995C207.555 269.269 208.419 220.071 208.419 220.071L211.442 161.811L194.596 165.263Z" fill="black"/>
<path d="M196.756 266.68C196.756 266.68 185.957 274.879 184.661 274.879C183.365 274.879 171.702 278.763 179.909 280.49C188.117 282.216 207.987 281.353 208.419 278.763C208.85 276.174 207.123 268.316 207.123 268.316L196.756 266.68Z" fill="#2F2E41"/>
<path opacity="0.2" d="M196.756 266.68C196.756 266.68 185.957 274.879 184.661 274.879C183.365 274.879 171.702 278.763 179.909 280.49C188.117 282.216 207.987 281.353 208.419 278.763C208.85 276.174 207.123 268.316 207.123 268.316L196.756 266.68Z" fill="black"/>
<path d="M169.974 129.012C169.974 129.012 165.223 130.738 165.223 132.033C165.223 133.328 160.903 149.727 160.04 150.59C159.176 151.453 158.744 155.337 158.744 155.337C158.744 155.337 154.424 165.263 155.288 165.263C156.152 165.263 163.495 163.537 163.927 165.263C164.359 166.989 167.815 154.474 167.815 154.474L175.158 139.801L169.974 129.012Z" fill="#F5963B"/>
<path d="M155.288 166.989C155.288 166.989 156.584 176.484 160.04 177.347C163.495 178.21 160.04 165.263 160.04 165.263L155.288 166.989Z" fill="#FFB8B8"/>
<path d="M166.519 123.834C166.519 123.834 169.111 129.444 170.406 132.465C171.702 135.486 183.797 124.697 183.797 124.697C183.797 124.697 177.318 119.95 177.318 117.792C177.318 115.634 166.519 123.834 166.519 123.834Z" fill="#FFB8B8"/>
<path d="M41.9166 264.114C44.8135 274.813 54.7358 281.439 54.7358 281.439C54.7358 281.439 59.9614 270.719 57.0646 260.02C54.1677 249.322 44.2454 242.696 44.2454 242.696C44.2454 242.696 39.0198 253.416 41.9166 264.114Z" fill="#3F3D56"/>
<path d="M46.1733 261.815C54.1223 269.546 55.0932 281.43 55.0932 281.43C55.0932 281.43 43.1763 280.78 35.2273 273.049C27.2783 265.318 26.3074 253.434 26.3074 253.434C26.3074 253.434 38.2243 254.084 46.1733 261.815Z" fill="#F5963B"/>
<path d="M144.921 281.784C137.147 281.784 129.547 279.481 123.083 275.166C116.619 270.85 111.58 264.717 108.605 257.541C105.63 250.365 104.852 242.469 106.368 234.851C107.885 227.233 111.629 220.235 117.126 214.743C122.623 209.25 129.627 205.51 137.252 203.995C144.877 202.48 152.781 203.257 159.964 206.23C167.146 209.202 173.285 214.236 177.604 220.694C181.924 227.152 184.229 234.745 184.229 242.512C184.217 252.924 180.072 262.906 172.703 270.269C165.334 277.631 155.343 281.772 144.921 281.784ZM144.921 204.103C137.318 204.103 129.885 206.356 123.563 210.576C117.241 214.797 112.313 220.795 109.403 227.814C106.494 234.832 105.732 242.555 107.216 250.005C108.699 257.456 112.361 264.3 117.737 269.671C123.114 275.043 129.964 278.701 137.421 280.183C144.878 281.665 152.608 280.904 159.633 277.997C166.658 275.09 172.662 270.167 176.886 263.851C181.11 257.535 183.365 250.109 183.365 242.512C183.354 232.329 179.3 222.566 172.092 215.366C164.885 208.165 155.114 204.115 144.921 204.103Z" fill="#2F2E41"/>
<path d="M265.869 281.784C258.094 281.784 250.494 279.481 244.03 275.166C237.566 270.85 232.528 264.717 229.553 257.541C226.578 250.365 225.799 242.469 227.316 234.851C228.833 227.233 232.576 220.235 238.074 214.743C243.571 209.25 250.575 205.51 258.2 203.995C265.825 202.48 273.729 203.257 280.911 206.23C288.094 209.202 294.233 214.236 298.552 220.694C302.871 227.152 305.177 234.745 305.177 242.512C305.165 252.924 301.02 262.906 293.651 270.269C286.281 277.631 276.29 281.772 265.869 281.784ZM265.869 204.103C258.265 204.103 250.832 206.356 244.51 210.576C238.188 214.797 233.261 220.795 230.351 227.814C227.441 234.832 226.68 242.555 228.163 250.005C229.647 257.456 233.308 264.3 238.685 269.671C244.061 275.043 250.911 278.701 258.369 280.183C265.826 281.665 273.556 280.904 280.581 277.997C287.605 275.09 293.609 270.167 297.834 263.851C302.058 257.535 304.313 250.109 304.313 242.512C304.301 232.329 300.247 222.566 293.04 215.366C285.833 208.165 276.061 204.115 265.869 204.103Z" fill="#2F2E41"/>
<path d="M144.921 245.102C146.352 245.102 147.513 243.942 147.513 242.512C147.513 241.082 146.352 239.923 144.921 239.923C143.49 239.923 142.329 241.082 142.329 242.512C142.329 243.942 143.49 245.102 144.921 245.102Z" fill="#2F2E41"/>
<path d="M266.733 245.102C268.164 245.102 269.324 243.942 269.324 242.512C269.324 241.082 268.164 239.923 266.733 239.923C265.301 239.923 264.141 241.082 264.141 242.512C264.141 243.942 265.301 245.102 266.733 245.102Z" fill="#2F2E41"/>
<path d="M148.774 238.798L147.979 238.459L170.555 185.541L234.576 186.846L234.7 187.04L266.232 236.238L265.505 236.703L234.096 187.7L171.121 186.415L148.774 238.798Z" fill="#2F2E41"/>
<path d="M216.032 248.634L232.624 190.176L233.456 190.411L217.22 247.612L260.631 242.084L260.74 242.941L216.032 248.634Z" fill="#2F2E41"/>
<path d="M168.987 198.623L168.37 199.227L212.862 244.541L213.478 243.936L168.987 198.623Z" fill="#2F2E41"/>
<path d="M236.941 176.37L234.353 185.865L235.187 186.092L237.774 176.597L236.941 176.37Z" fill="#2F2E41"/>
<path d="M172.124 183.053L171.281 182.861L173.321 173.894H166.087V168.284H166.951V173.031H174.403L172.124 183.053Z" fill="#2F2E41"/>
<path d="M221.377 167.852C221.377 167.852 221.377 165.263 226.993 166.558C232.608 167.853 249.886 171.305 251.182 170.873C252.478 170.442 252.046 173.463 246.431 174.757C240.815 176.052 234.336 173.031 233.04 172.168C231.744 171.305 221.377 167.852 221.377 167.852Z" fill="#2F2E41"/>
<path d="M205.827 245.102H194.596V249.417H205.827V245.102Z" fill="#F5963B"/>
<path d="M216.626 256.754C214.917 256.754 213.247 256.247 211.826 255.299C210.405 254.351 209.298 253.003 208.644 251.425C207.99 249.848 207.819 248.113 208.153 246.439C208.486 244.764 209.309 243.226 210.517 242.019C211.725 240.812 213.264 239.99 214.94 239.657C216.616 239.324 218.353 239.495 219.932 240.148C221.51 240.801 222.86 241.908 223.809 243.327C224.758 244.747 225.265 246.415 225.265 248.122C225.262 250.411 224.351 252.605 222.732 254.223C221.112 255.841 218.916 256.751 216.626 256.754ZM216.626 240.354C215.088 240.354 213.585 240.81 212.306 241.663C211.027 242.517 210.031 243.73 209.442 245.15C208.854 246.569 208.7 248.131 209 249.638C209.3 251.145 210.04 252.529 211.128 253.615C212.215 254.702 213.601 255.441 215.109 255.741C216.617 256.041 218.18 255.887 219.601 255.299C221.022 254.711 222.236 253.716 223.091 252.438C223.945 251.161 224.401 249.659 224.401 248.122C224.398 246.063 223.579 244.088 222.121 242.632C220.663 241.176 218.687 240.357 216.626 240.354Z" fill="#2F2E41"/>
<path d="M170.406 128.149C176.132 128.149 180.773 123.512 180.773 117.792C180.773 112.071 176.132 107.434 170.406 107.434C164.681 107.434 160.04 112.071 160.04 117.792C160.04 123.512 164.681 128.149 170.406 128.149Z" fill="#FFB8B8"/>
<path d="M203.235 166.127C203.235 166.127 173.43 183.389 173.862 188.999C174.294 194.609 196.756 225.25 196.756 225.25C196.756 225.25 198.484 234.313 200.211 234.313C201.939 234.313 212.738 238.197 213.17 235.608C213.602 233.018 209.714 229.997 210.146 228.271C210.578 226.545 191.14 195.041 191.14 195.041C191.14 195.041 232.741 179.505 224.035 166.127C215.33 152.748 203.235 166.127 203.235 166.127Z" fill="#2F2E41"/>
<path d="M204.099 232.586C204.099 232.586 198.916 233.881 198.052 235.607C197.188 237.334 182.069 242.944 186.389 244.239C190.708 245.533 215.762 245.965 216.626 245.102C217.49 244.239 216.626 234.221 213.17 234.267C209.714 234.313 205.827 235.607 204.099 232.586Z" fill="#2F2E41"/>
<path d="M170.406 133.76L180.125 121.892C180.125 121.892 191.14 118.655 195.892 125.128C200.643 131.602 213.602 147.569 217.922 151.022C222.241 154.474 228.288 167.853 226.129 168.284C223.969 168.716 211.874 163.537 207.123 166.99C202.371 170.442 193.3 170.874 192.868 169.147C192.436 167.421 166.519 138.507 166.519 134.623C166.519 130.739 169.281 129.905 169.281 129.905L170.406 133.76Z" fill="#F5963B"/>
<path d="M175.627 168.07L162.595 163.467C161.92 163.229 161.179 163.582 160.941 164.256C160.702 164.93 161.056 165.67 161.731 165.908L174.763 170.512C175.437 170.75 176.178 170.397 176.416 169.723C176.655 169.048 176.301 168.309 175.627 168.07Z" fill="#2F2E41"/>
<path d="M146.217 162.674C146.217 162.674 131.098 166.989 132.394 171.737C133.69 176.484 147.513 166.126 147.513 166.126L146.217 162.674Z" fill="#FFB8B8"/>
<path d="M185.525 125.128C185.525 125.128 179.478 130.307 178.182 136.349C176.886 142.391 170.406 153.18 170.406 153.18L144.057 161.811C144.057 161.811 142.329 170.011 144.921 170.011C147.513 170.011 176.454 163.969 177.318 162.674C178.182 161.379 196.756 136.78 196.756 136.78C196.756 136.78 198.484 123.402 185.525 125.128Z" fill="#F5963B"/>
<path d="M163.968 105.804C163.712 106.023 163.406 106.177 163.077 106.25C162.912 106.279 162.742 106.242 162.604 106.147C162.466 106.051 162.371 105.905 162.341 105.74C162.151 106.268 161.797 106.722 161.331 107.035C160.836 107.292 160.071 107.077 160 106.524C159.928 106.943 159.742 107.335 159.463 107.657C159.317 107.811 159.116 107.901 158.905 107.908C158.693 107.915 158.487 107.839 158.331 107.695C158.548 108.878 158.414 110.094 158.482 111.294C158.55 112.495 158.871 113.767 159.778 114.557C161.102 115.708 163.093 115.424 164.834 115.206C165.098 115.15 165.371 115.165 165.627 115.249C166.279 115.526 166.249 116.433 166.258 117.141C166.311 118.384 166.803 119.567 167.647 120.481C168.491 121.395 169.632 121.981 170.867 122.135C171.558 122.241 172.263 122.069 172.828 121.657C173.322 121.238 173.575 120.555 174.141 120.241C175.063 119.729 176.18 120.475 176.854 121.286C177.528 122.096 178.192 123.092 179.236 123.241C180.617 123.437 181.668 122.031 182.184 120.737C182.896 118.923 183.237 116.985 183.187 115.037C183.137 113.089 182.697 111.171 181.894 109.396C179.011 103.118 169.164 102.125 163.968 105.804Z" fill="#2F2E41"/>
<path d="M346.38 281.766L345.612 281.37C355.583 262.112 350.251 237.103 344.023 219.514C339.795 207.692 334.401 196.318 327.921 185.561L328.651 185.1C335.164 195.912 340.586 207.343 344.838 219.226C351.123 236.976 356.492 262.235 346.38 281.766Z" fill="#2F2E41"/>
<path d="M353.774 185.255L348.17 215.897L349.02 216.053L354.624 185.41L353.774 185.255Z" fill="#2F2E41"/>
<path d="M316.508 211.362L315.875 211.95L344.816 243.022L345.449 242.434L316.508 211.362Z" fill="#2F2E41"/>
<path d="M368.536 245.494L353.857 265.782L354.557 266.287L369.237 245.999L368.536 245.494Z" fill="#2F2E41"/>
<path d="M356.363 177.131C358.749 177.131 360.683 175.199 360.683 172.816C360.683 170.432 358.749 168.5 356.363 168.5C353.978 168.5 352.044 170.432 352.044 172.816C352.044 175.199 353.978 177.131 356.363 177.131Z" fill="#F5963B"/>
<path d="M309.28 210.361C311.666 210.361 313.6 208.429 313.6 206.046C313.6 203.662 311.666 201.73 309.28 201.73C306.895 201.73 304.961 203.662 304.961 206.046C304.961 208.429 306.895 210.361 309.28 210.361Z" fill="#3F3D56"/>
<path d="M328.286 214.677C330.672 214.677 332.606 212.744 332.606 210.361C332.606 207.978 330.672 206.045 328.286 206.045C325.901 206.045 323.967 207.978 323.967 210.361C323.967 212.744 325.901 214.677 328.286 214.677Z" fill="#3F3D56"/>
<path d="M319.647 231.508C322.033 231.508 323.967 229.575 323.967 227.192C323.967 224.809 322.033 222.876 319.647 222.876C317.261 222.876 315.328 224.809 315.328 227.192C315.328 229.575 317.261 231.508 319.647 231.508Z" fill="#F5963B"/>
<path d="M373.642 242.297C376.027 242.297 377.961 240.365 377.961 237.981C377.961 235.598 376.027 233.666 373.642 233.666C371.256 233.666 369.322 235.598 369.322 237.981C369.322 240.365 371.256 242.297 373.642 242.297Z" fill="#3F3D56"/>
<path d="M359.387 247.044C361.773 247.044 363.707 245.112 363.707 242.728C363.707 240.345 361.773 238.413 359.387 238.413C357.001 238.413 355.067 240.345 355.067 242.728C355.067 245.112 357.001 247.044 359.387 247.044Z" fill="#3F3D56"/>
<path d="M369.322 260.854C371.708 260.854 373.642 258.922 373.642 256.538C373.642 254.155 371.708 252.223 369.322 252.223C366.936 252.223 365.002 254.155 365.002 256.538C365.002 258.922 366.936 260.854 369.322 260.854Z" fill="#3F3D56"/>
<path d="M323.967 182.31C326.352 182.31 328.286 180.378 328.286 177.994C328.286 175.611 326.352 173.679 323.967 173.679C321.581 173.679 319.647 175.611 319.647 177.994C319.647 180.378 321.581 182.31 323.967 182.31Z" fill="#3F3D56"/>
<path d="M390.056 281.137H0V282H390.056V281.137Z" fill="#2F2E41"/>
<path d="M66.9251 191.773L30.2649 170.626L9.09904 207.253L45.7593 228.4L66.9251 191.773Z" fill="#F2F2F2"/>
<path d="M46.6512 235.764C44.7717 235.764 42.9344 235.207 41.3716 234.164C39.8088 233.121 38.5908 231.638 37.8716 229.903C37.1523 228.168 36.9641 226.259 37.3308 224.417C37.6975 222.576 38.6025 220.884 39.9316 219.556C41.2606 218.228 42.9539 217.324 44.7973 216.958C46.6407 216.591 48.5514 216.78 50.2879 217.498C52.0243 218.217 53.5085 219.434 54.5527 220.995C55.5969 222.556 56.1542 224.392 56.1542 226.27C56.1514 228.787 55.1493 231.2 53.3677 232.98C51.5862 234.76 49.1707 235.761 46.6512 235.764ZM46.6512 217.639C44.9425 217.639 43.2723 218.145 41.8516 219.093C40.4309 220.042 39.3236 221.39 38.6697 222.967C38.0158 224.544 37.8447 226.279 38.1781 227.954C38.5114 229.628 39.3342 231.166 40.5424 232.373C41.7506 233.58 43.29 234.402 44.9658 234.735C46.6416 235.068 48.3787 234.897 49.9572 234.244C51.5358 233.591 52.8851 232.484 53.8344 231.065C54.7836 229.646 55.2903 227.977 55.2903 226.27C55.2878 223.981 54.3768 221.787 52.7572 220.169C51.1376 218.551 48.9417 217.641 46.6512 217.639Z" fill="#3F3D56"/>
</g>
<defs>
<clipPath id="clip0_4_183">
<rect width="405" height="282" fill="white"/>
</clipPath>
</defs>
</svg>
