<svg width="275" height="33" viewBox="0 0 275 33" fill="none" xmlns="http://www.w3.org/2000/svg">
<path d="M16.3546 0L20.0265 11.4012H31.9088L22.2958 18.4476L25.9676 29.8488L16.3546 22.8024L6.74162 29.8488L10.4135 18.4476L0.800452 11.4012H12.6828L16.3546 0Z" fill="#F5963B"/>
<path d="M258.645 0L262.317 11.4012H274.2L264.587 18.4476L268.258 29.8488L258.645 22.8024L249.032 29.8488L252.704 18.4476L243.091 11.4012H254.974L258.645 0Z" fill="#D9D9D9"/>
<path d="M210.187 0L213.859 11.4012H225.741L216.128 18.4476L219.8 29.8488L210.187 22.8024L200.574 29.8488L204.246 18.4476L194.633 11.4012H206.515L210.187 0Z" fill="#F5963B"/>
<path d="M161.729 0L165.401 11.4012H177.283L167.67 18.4476L171.342 29.8488L161.729 22.8024L152.116 29.8488L155.788 18.4476L146.175 11.4012H158.057L161.729 0Z" fill="#F5963B"/>
<path d="M113.271 0L116.943 11.4012H128.825L119.212 18.4476L122.884 29.8488L113.271 22.8024L103.658 29.8488L107.33 18.4476L97.7168 11.4012H109.599L113.271 0Z" fill="#F5963B"/>
<path d="M64.8128 0L68.4846 11.4012H80.3669L70.7539 18.4476L74.4258 29.8488L64.8128 22.8024L55.1998 29.8488L58.8716 18.4476L49.2586 11.4012H61.1409L64.8128 0Z" fill="#F5963B"/>
</svg>
