<svg width="96" height="96" viewBox="0 0 96 96" fill="none" xmlns="http://www.w3.org/2000/svg">
<path d="M43.6 8.39991C25.2 10.3999 10.4 25.1999 8.4 43.1999C6.4 61.9999 17.2 78.7999 33.6 85.1999C34.8 85.5999 36 84.7999 36 83.1999V76.7999C36 76.7999 34.4 77.1999 32.4 77.1999C26.8 77.1999 24.4 72.3999 24 69.5999C23.6 67.9999 22.8 66.7999 21.6 65.5999C20.4 65.1999 20 65.1999 20 64.7999C20 63.9999 21.2 63.9999 21.6 63.9999C24 63.9999 26 66.7999 26.8 67.9999C28.8 71.1999 31.2 71.9999 32.4 71.9999C34 71.9999 35.2 71.5999 36 71.1999C36.4 68.3999 37.6 65.5999 40 63.9999C30.8 61.9999 24 56.7999 24 47.9999C24 43.5999 26 39.1999 28.8 35.9999C28.4 35.1999 28 33.1999 28 30.3999C28 28.7999 28 26.3999 29.2 23.9999C29.2 23.9999 34.8 23.9999 40.4 29.1999C42.4 28.3999 45.2 27.9999 48 27.9999C50.8 27.9999 53.6 28.3999 56 29.1999C61.2 23.9999 67.2 23.9999 67.2 23.9999C68 26.3999 68 28.7999 68 30.3999C68 33.5999 67.6 35.1999 67.2 35.9999C70 39.1999 72 43.1999 72 47.9999C72 56.7999 65.2 61.9999 56 63.9999C58.4 65.9999 60 69.5999 60 73.1999V83.5999C60 84.7999 61.2 85.9999 62.8 85.5999C77.6 79.5999 88 65.1999 88 48.3999C88 24.3999 67.6 5.59991 43.6 8.39991Z" fill="black"/>
</svg>
