<svg width="271" height="114" viewBox="0 0 271 114" fill="none" xmlns="http://www.w3.org/2000/svg">
<path d="M167.461 79H157.305V50.9922C157.305 49.6641 156.953 48.6615 156.25 47.9844C155.547 47.2812 154.505 46.9297 153.125 46.9297H139.922V79H129.766V41.8125C129.766 41.1094 129.896 40.4583 130.156 39.8594C130.417 39.2344 130.781 38.7005 131.25 38.2578C131.719 37.7891 132.266 37.4245 132.891 37.1641C133.516 36.9036 134.18 36.7734 134.883 36.7734H153.203C154.609 36.7734 156.12 37.0208 157.734 37.5156C159.349 38.0104 160.885 38.8047 162.344 39.8984V36.7734H176.094C177.057 36.7734 178.073 36.8906 179.141 37.125C180.208 37.3333 181.263 37.6719 182.305 38.1406C183.372 38.6094 184.388 39.2214 185.352 39.9766C186.315 40.7057 187.161 41.6042 187.891 42.6719C188.62 43.7135 189.206 44.9245 189.648 46.3047C190.091 47.6849 190.312 49.2474 190.312 50.9922V79H180.156V50.9922C180.156 49.6641 179.818 48.6615 179.141 47.9844C178.49 47.2812 177.474 46.9297 176.094 46.9297H166.953C167.292 48.1797 167.461 49.5339 167.461 50.9922V79ZM254.897 79H240.248L219.78 59.2344C218.634 58.1927 218.1 56.8906 218.178 55.3281C218.23 54.599 218.412 53.9219 218.725 53.2969C219.064 52.6458 219.519 52.099 220.092 51.6562L238.647 36.6953H254.897L230.991 55.9531L254.897 79ZM215.6 79H205.444V18.9219H215.6V79Z" fill="#F5963B"/>
<circle cx="42.1827" cy="47.1827" r="9.06731" fill="#F58A28"/>
<circle cx="42.1827" cy="71.625" r="9.06731" fill="#F58A28"/>
<circle cx="68.202" cy="71.625" r="9.06731" fill="#F58A28"/>
<circle cx="68.202" cy="47.1827" r="9.06731" fill="#F58A28"/>
<circle cx="42.1827" cy="27.4712" r="7.49038" fill="#F2B344"/>
<circle cx="42.1827" cy="91.3365" r="7.49038" fill="#F2B344"/>
<circle cx="68.2019" cy="27.4712" r="7.49038" fill="#F2B344"/>
<circle cx="68.2019" cy="91.3365" r="7.49038" fill="#F2B344"/>
<circle cx="87.9135" cy="47.9712" r="7.49038" fill="#F2B344"/>
<circle cx="87.9135" cy="27.4712" r="7.49038" fill="#F2B344"/>
<circle cx="22.4712" cy="47.9712" r="7.49038" fill="#F2B344"/>
<circle cx="22.4712" cy="27.4712" r="7.49038" fill="#F2B344"/>
<circle cx="87.9135" cy="71.625" r="7.49038" fill="#F2B344"/>
<circle cx="22.4712" cy="71.625" r="7.49038" fill="#F2B344"/>
<circle cx="22.4712" cy="91.3365" r="7.49038" fill="#F2B344"/>
<circle cx="87.9135" cy="91.3365" r="7.49038" fill="#F2B344"/>
<circle cx="5.91346" cy="71.625" r="5.91346" fill="#F2C844"/>
<circle cx="104.471" cy="71.625" r="5.91346" fill="#F2C844"/>
<circle cx="5.91346" cy="47.9711" r="5.91346" fill="#F2C844"/>
<circle cx="104.471" cy="47.1827" r="5.91346" fill="#F2C844"/>
<circle cx="68.2019" cy="10.9135" r="5.91346" fill="#F2C844"/>
<circle cx="68.2019" cy="107.894" r="5.91346" fill="#F2C844"/>
<circle cx="42.1827" cy="10.9135" r="5.91346" fill="#F2C844"/>
<circle cx="42.1827" cy="107.894" r="5.91346" fill="#F2C844"/>
</svg>
